<svg xmlns="http://www.w3.org/2000/svg" viewBox="0 0 560 560" fill="none">
  <defs>
    <radialGradient id="coreGlow" cx="50%" cy="50%" r="50%">
      <stop offset="0%" stop-color="#00f5ff" stop-opacity="0.25" />
      <stop offset="40%" stop-color="#00f5ff" stop-opacity="0.08" />
      <stop offset="100%" stop-color="#00f5ff" stop-opacity="0" />
    </radialGradient>
    <radialGradient id="sphereEdge" cx="50%" cy="50%" r="50%">
      <stop offset="70%" stop-color="transparent" />
      <stop offset="95%" stop-color="#00f5ff" stop-opacity="0.15" />
      <stop offset="100%" stop-color="#00f5ff" stop-opacity="0" />
    </radialGradient>
    <radialGradient id="particleGlow">
      <stop offset="0%" stop-color="#00f5ff" stop-opacity="0.9" />
      <stop offset="100%" stop-color="#00f5ff" stop-opacity="0" />
    </radialGradient>
  </defs>
  <circle cx="280" cy="280" r="240" fill="none" stroke="rgba(0,245,255,0.1)" stroke-width="1" stroke-dasharray="8 12" style="transform-origin: 280px 280px; animation: ring-spin 30s linear infinite;" />
  <circle cx="280" cy="280" r="240" fill="url(#coreGlow)" />
  <circle cx="280" cy="280" r="220" fill="url(#sphereEdge)" />
  <ellipse cx="280" cy="280" rx="220" ry="50" fill="none" stroke="rgba(0,245,255,0.08)" stroke-width="1" />
  <ellipse cx="280" cy="280" rx="210" ry="130" fill="none" stroke="rgba(0,245,255,0.06)" stroke-width="1" transform="rotate(-30, 280, 280)" />
  <ellipse cx="280" cy="280" rx="200" ry="180" fill="none" stroke="rgba(124,58,237,0.06)" stroke-width="1" transform="rotate(20, 280, 280)" />
  <ellipse cx="280" cy="280" rx="60" ry="220" fill="none" stroke="rgba(0,245,255,0.05)" stroke-width="1" transform="rotate(15, 280, 280)" />
  <ellipse cx="280" cy="280" rx="40" ry="220" fill="none" stroke="rgba(124,58,237,0.04)" stroke-width="1" transform="rotate(-20, 280, 280)" />
  <line x1="180" y1="160" x2="350" y2="200" stroke="rgba(0,245,255,0.08)" stroke-width="1" />
  <line x1="320" y1="140" x2="220" y2="380" stroke="rgba(124,58,237,0.06)" stroke-width="1" />
  <line x1="150" y1="300" x2="400" y2="260" stroke="rgba(0,245,255,0.06)" stroke-width="1" />
  <line x1="200" y1="180" x2="380" y2="340" stroke="rgba(0,245,255,0.05)" stroke-width="1" />
  <line x1="340" y1="160" x2="180" y2="350" stroke="rgba(124,58,237,0.05)" stroke-width="1" />
  <circle cx="180" cy="160" r="3" fill="rgba(0,245,255,0.4)" />
  <circle cx="350" cy="200" r="4" fill="rgba(0,245,255,0.6)" />
  <circle cx="320" cy="140" r="2.5" fill="rgba(124,58,237,0.4)" />
  <circle cx="220" cy="380" r="3" fill="rgba(124,58,237,0.5)" />
  <circle cx="400" cy="260" r="3.5" fill="rgba(0,245,255,0.5)" />
  <circle cx="150" cy="300" r="2" fill="rgba(0,245,255,0.3)" />
  <circle cx="380" cy="340" r="3" fill="rgba(0,245,255,0.35)" />
  <circle cx="180" cy="350" r="2.5" fill="rgba(124,58,237,0.35)" />
  <circle id="op-eq-1" r="4" fill="url(#particleGlow)" />
  <circle id="op-eq-2" r="3" fill="url(#particleGlow)" />
  <circle id="op-eq-3" r="2.5" fill="url(#particleGlow)" />
  <circle id="op-30-1" r="3.5" fill="url(#particleGlow)" />
  <circle id="op-30-2" r="2" fill="url(#particleGlow)" />
  <circle id="op-60-1" r="3" fill="rgba(168,85,247,0.8)" />
  <circle id="op-60-2" r="2.5" fill="rgba(168,85,247,0.6)" />
  <circle cx="340" cy="180" r="6" fill="rgba(0,245,255,0.15)" style="filter: blur(3px);" />
  <circle cx="200" cy="350" r="8" fill="rgba(124,58,237,0.1)" style="filter: blur(4px);" />
  <circle cx="380" cy="310" r="5" fill="rgba(0,245,255,0.12)" style="filter: blur(3px);" />
  <g transform="translate(260, 256)" opacity="0.6">
    <rect x="4" y="18" width="32" height="24" rx="4" fill="none" stroke="#00f5ff" stroke-width="2" />
    <path d="M12 18V12A8 8 0 0128 12V18" fill="none" stroke="#00f5ff" stroke-width="2" stroke-linecap="round" />
    <circle cx="20" cy="30" r="3" fill="#00f5ff" />
  </g>
</svg>
